/* XPM */
static char *_8c2bc0410b64dd5f242b81250223e5bKs41QFqXgUYwQ9PL[] = {
/* columns rows colors chars-per-pixel */
"12 19 10 1 ",
"  c black",
". c #060709",
"X c #161E25",
"o c #222D38",
"O c #273442",
"+ c #2D3C4B",
"@ c #384B5E",
"# c #49617A",
"$ c #4F6983",
"% c #5A7896",
/* pixels */
"           X",
"           X",
"  O$$$$$$$$$",
"  +%%%%%%%%%",
"  +%%%%%%%%%",
"  +%%%%%%%%%",
"  +%%%%%%%%%",
"  o########%",
"           @",
"  .........@",
"  +%%%%%%%%%",
"  +%%%%%%%%%",
"  +%%%%%%%%%",
"  +%%%%%%%%%",
"  +%%%%%%%%%",
"  +%%%%%%%%%",
"  O$$$$$$$$$",
"            ",
"            "
};
