/* XPM */
static char *_a6fee63d07d43e6a9756171e76b35d8wBgCyu6uRr8jRRqE[] = {
/* columns rows colors chars-per-pixel */
"12 16 12 1 ",
"  c black",
". c #060709",
"X c #0B0F13",
"o c #11161C",
"O c #1C252F",
"+ c #334354",
"@ c #384B5E",
"# c #3E5267",
"$ c #49617A",
"% c #4F6983",
"& c #54708D",
"* c #5A7896",
/* pixels */
"   %*****&  ",
"   O*****&  ",
"  . %****&  ",
"  + O****&  ",
"  %X $***&  ",
"  &@ o***&  ",
"  &*X #**&  ",
"  &*@ X**&  ",
"  &**X @*&  ",
"  &**# .*&  ",
"  &***o @&  ",
"  &***$ .&  ",
"  &****O +  ",
"  &****%    ",
"  &*****O   ",
"  &*****%   "
};
