/* XPM */
static char *c08a09e71cfd49ecbad69ef0aaea87a2HH2L3NsP3mP0nykk[] = {
/* columns rows colors chars-per-pixel */
"12 16 17 1 ",
"  c black",
". c #060709",
"X c #0B0F13",
"o c #11161C",
"O c #161E25",
"+ c #1C252F",
"@ c #222D38",
"# c #273442",
"$ c #2D3C4B",
"% c #334354",
"& c #384B5E",
"* c #3E5267",
"= c #435A70",
"- c #49617A",
"; c #4F6983",
": c #54708D",
"> c #5A7896",
/* pixels */
">>=OX.  X+%>",
":+         -",
"$  O=;:;*$X-",
"o o>>>>>>>>:",
"X +>>>>>>>>>",
"o .;>>>>>>>>",
"&   +$=>>>>>",
">#      +&>>",
">>;%O     o>",
">>>>>>=%X  @",
">>>>>>>>:X .",
">>>>>>>>>@  ",
"&>>>>>>>:o o",
" o#=;:;*o  $",
"          #>",
"=%OX  .o@->>"
};
