/* XPM */
static char *result[] = {
/* columns rows colors chars-per-pixel */
"34 34 2 1 ",
"  c black",
". c white",
/* pixels */
"                                  ",
" ................................ ",
" ................................ ",
" ................................ ",
" ................................ ",
" ................................ ",
" ................................ ",
" ................................ ",
" ................................ ",
" ................................ ",
" ................................ ",
" ................................ ",
" ................................ ",
" ................................ ",
" ................................ ",
" ................................ ",
" ................................ ",
" ................................ ",
" ................................ ",
" ................................ ",
" ................................ ",
" ................................ ",
" ................................ ",
" ................................ ",
" ................................ ",
" ................................ ",
" ................................ ",
" ................................ ",
" ................................ ",
" ................................ ",
" ................................ ",
" ................................ ",
" ................................ ",
"                                  "
};
