/* XPM */
static char *_447af9b0d0a48d4fb70af8ae299350fv9gY3zd3ANr8CF4i[] = {
/* columns rows colors chars-per-pixel */
"64 64 15 1 ",
"  c black",
". c #1F0503",
"X c #160B06",
"o c #1D0D0E",
"O c #290505",
"+ c #230B07",
"@ c #280904",
"# c #2C170C",
"$ c #3F2618",
"% c #4B1A08",
"& c #422212",
"* c #5E341C",
"= c #6E3D0C",
"- c #5F3424",
"; c #FDD599",
/* pixels */
"XXXXXXXXXXXX#X#X-------==;=;;;;;;;;=;=====--$---X#X#XXXXXXXXXXXX",
"XXXXXXXXXX######$                              $######XXXXXXXXXX",
"XXXXXXXX########$                              $########XXXXXXXX",
"#XXXXXXXXX###&##$  =======%=========%%%%%====  $##&###XXXXXXXXXX",
"XXXXXXXX########$  @@@@@@@@+@@@@@@@@@@@@@@@@%  $########XXXXXXXX",
"XXXXXXX####&#&#&$  %@@@@@@@+@@@@@+@@@+@@@@@@%  $&#&#&####XXXXXXX",
"XXXXXXX#####&#&#o  @@@@@@@@+@@@@@+@@@+@@@@@@%  $#&#&#####XXXXXXX",
"XXXXXX#######&&&o  @@@@@@@@+@@@@@+@@@+@@@@@@%  $&&&#######XXXXXX",
"XXXXX#######&#&#$  %@@@@@@@+@@@@@+@@@+@@@@@@%  $#&#&#######XXXXX",
"XXXXX#&###&&&&&&o  %@@@@@@@+@@@@@@+@@+@@@@@@%  $&&&&&&###&#XXXXX",
"XXXX####&#&&&&&&o  @@@@@@@@+@@@@@@+@@+@@@@@@%  $&&&&&&#&####XXXX",
"XX&X###&&&&&&&&&o  @@@@@@@@+@@@@@@+@@+@@@@@@%  $&&&&&&&&&###X&XX",
"XXX####&&&&&&&&&o  @@@@@@@@+@@@@@@+@@+@@@@@@%  $&&&&&&&&&####XXX",
"XX####&&&&&&&&&&$  %@@@@@@@+@@@@@@+@@+@@@@@@%  $&&&&&&&&&&####XX",
"XX##&#&#&&&&&&&&$  %@@@@@@@+@@@@@@+@@+@@@@@@%  $&&&&&&&&#&#&##XX",
"X#&#&#&#&&##&&&&$  %@@@@@@@+@@@@@@+@@+@@@@@@@  $&&&&##&&#&#&#&#X",
"#####&#&&&#&#&&&$  %@@@@@@@@+@@@@@+@@+@@@@@@@ oo&&&#&#&&&#&#####",
"&##&#&#&&&###&&&$  %@@@@@@@@+@@@@@@@@+@@@@@@@ oo&&&###&&&#&#&##&",
"###&###&&&###&&#$  %@@@@@@@@+@@@@@@@@+@@@@@@% oo#&&###&&&###&###",
"##&####&&&##&###$  %@@@@@@@@+@@@@@@@@+@@@@@@%  $###&##&&&####&##",
"####&#&&&&&#####$  %@@@@@@@@+@@@+@@@@+@@@@@@%  $#####&&&&&#&####",
"###&&&&&&&&#####$  %@@@@@@@@+@@@+@@@@+@@@@@@@  $#####&&&&&&&&###",
"#&#&&#&&#XX#&&&#$  @@@@@@@@@+@@@+@@@@+@@@@@@%  $#&&&#XX#&&#&&#&#",
"#&##&#&&#X&####&$  @@@@@@@@@+@@@+@@@@+@@@@@@%  $&####&X#&&#&##&#",
"##XX##&#X&&&#&##$  @@@@@@@@@+@@@+@@@@+@@@@@@%  $##&#&&&X#&##XX##",
"##XX&##&###&##&#$  @@@@@@@@@+@@@+@@@@+@@@@@@%  $#&##&###&##&XX##",
"##&###&&##X&X###$  @@@@@@@@@+@@@+@@@@+@@@@@@%  $###X&X##&&###&##",
"###XXX###X&#XXX#$  %@@@@@@@@+@@@+@@@@+@@@@@@%  $#XXX#&X###XXX###",
"XXXXXXXXXXXXXXXX$  %@@@@@@@@+@@@+@@@@+@@@@@@%  $XXXXXXXXXXXXXXXX",
"****************$  %@@@@@@@@+@@@+@@@@+@@@@@@%  $****************",
"$$$$$$$$$$$$$$$$$  %@@@@@+@@+@@@+@@@@+@@@@@@%  $$$$$$$$$$$$$$$$$",
"$$$$$$$$$$$$$$$$$  %@@@@@+@@+@@@+@@@@+@@@@@@%  $$$$$$$$$$$$$$$$$",
"&&&&----&-&&&&--$  %@@@@@+@@@@@@+@@@@@@@@@@@%  $--------&-&&&&--",
"XX&####&XXXX-###$  @@@@@@+@@@@@@+@@@@@@;;@@@@  $##&X###&XXXX-###",
"XX&#####XXXX-###$  %@@@@@+@@@@@@+@@@@@=%%=@@@  $##&X####XXXX-###",
"XX&####&XXXX&###$  %@@@@@+@@@@@@+@@@@@%%%%@@@  $##&X###&XXXX&###",
"&&&&&&----------$  @@@@@@+@@@@@@+@@@@@ %% @@%  $-&&-&&----------",
"XXXX&XXXXX-XXXXX$  @@@@@@+@@@@@@+@@@@@    @@@  $XXXX&XXXXX-XXXXX",
"XXXX&XXXXX-XXXXX$  @@@@@@+@@@@@@+@@@@@    @@@  oXXXX&XXXXX-XXXXX",
"XXXX&XXXXX-XXXXX$  %@@@@@+@@@@@@+@@@@@    @@%  $XXXX&XXXXX-XXXXX",
"&--&&&&&-----&--$  %@@@@@+@@@@@@+@@@@@@@@@@@%  $&&--&&&&-----&--",
"XXXXXX&#########$  %@@+@@+@@@@@@+@@@@+@@@@@@%  $##X#XX&#########",
"XXXXXX-##XXXXXXX$  %@@+@@+@@@@@@@+@@@+@@@@@@@  $###XXX-##XXXXXXX",
"XXXXXX&#XXXXXXX#$  %@@+@@+@@@@@@@+@@@+@@@@@@@  oXX#XXX&#XXXXXXX#",
"&&&---&&&&&---&&$  %@@+@@+@@@+@@@+@@@+@@@@@@@  o------&&&&&---&&",
"XX&XXXXXXX&XXXXX$  %@@+@@+@@@+@@@+@@@+@@@@@@@  oXX&#XXXXXX&XXXXX",
"XX-###X##X&XXXXX$  %@@+@@+@@@+@@@+@@@+@@@@@@%  oXX&###X##X&XXXXX",
"XX-XX###XX&XXXXXo  %@++@@+@@@+@@@+@@@+@@@@@@%  oXX&#X###XX&XXXXX",
"&&&&-----&&&--&-o  @@++@@+@@@+@@@+@@@+@@@@@@%  $---------&&&--&-",
"XX&XXXX&XXXX&XXX$  @@++@@+@@@+@@@+@@@+@@@@@@%  $XX&XXXX&XXXX&XXX",
"XX&XXXX&XXXX&XXX$  @@++@@+@@@+@@@+@@@+@@+@@@@  $XX-XXXX&XXXX&XXX",
"XX&XXXX&XXXX&XXX$  @@++@@+@@@+@@@+@@@++@+@@@%  $XX-XXXX&XXXX&XXX",
"---&&&-------&&&o  @@++@@+@@@++@@+@@@++@+@@@@  o&&-&&&-------&&&",
"XXXX&#X###&XXX##o  @@+@@@+@@@+++@++@@++@+@@@@  $XX#X&#X###&XXX##",
"XXXX&XX#XX&##XXXo  @@+@@+++@+@@+@++@@++@+@@@.  oXX#X&XX#XX&##XXX",
"XXXX&#XXXX&XXXX#$  @@+@@+++@+@@+@++@@++@+@@@.  $#XXX&#XXXX&XXXX#",
"&&------&&&-----$  @@+@++++++@@+@++@@++@+@@@.  $--&&----&&&-----",
"XXXXXX&######XX#o  @@+@+@+@++@@+@++@+++@+@@@@  $###XXX&######XX#",
"XXXXXX&XX#XXXXXXo  +@+@+@+@++@@+@++@+++@+@@@@  oXX#XXX&XX#XXXXXX",
"XXXXXX&XXXXXXXXXo  +@+@+@+@++@@+@++@+++@+@@@@  o#XXXXX&XXXXXXXXX",
"&&&&&&&&&&&&&&&&o  +O+@+@+@++@+@@+++@++@+@@@.  o&&&&&&&&&&&&&&&&",
"XX&XXXXXXX&XXXXXo  +O+@+@+@++@+@@+++@++@+@@@.  oXX&XXXXXXX&XXXXX",
"XX&XXXXXXX&XXXXXo  +O+O+@+@++@+@@+++@++@+@@..  oXX&XXXXXXX&XXXXX",
"XX&XXXXXXX&XXXXXo  +++++++++++++++++++++++++.  oXX&XXXXXXX&XXXXX"
};
