/* XPM */
static char *e05ef950a34645f2e374f91df3967b975237eqiBlDXa2sid[] = {
/* columns rows colors chars-per-pixel */
"16 12 17 1 ",
"  c black",
". c #060709",
"X c #0B0F13",
"o c #11161C",
"O c #161E25",
"+ c #1C252F",
"@ c #222D38",
"# c #273442",
"$ c #2D3C4B",
"% c #334354",
"& c #384B5E",
"* c #3E5267",
"= c #435A70",
"- c #49617A",
"; c #4F6983",
": c #54708D",
"> c #5A7896",
/* pixels */
"X :>>>*  =>>>: o",
"# &>>>$  $>>>* #",
"* @>>>OXX.>>>@ *",
": .>>: @@ :>>X ;",
">X ;>* && &>- o>",
"># %>@ ;: @>& #>",
">* +>Xo>>X.>+ *>",
">: .; #>># ;X ;>",
">>X $ *>>* @ o>>",
">>#   ;>>: . #>>",
">>*  o>>>>X  *>>",
">>:  #>>>># .:>>"
};
