/* XPM */
static char *b589ffc87f3649ac8b7a7ceb4cf7d3a8g5SPmTAquB2VzDwg[] = {
/* columns rows colors chars-per-pixel */
"256 64 9 1 ",
"  c None",
". c #181220",
"X c #251E30",
"o c #551C1F",
"O c #00627C",
"+ c #854024",
"@ c #CD9152",
"# c #00AED7",
"$ c #60DDF3",
/* pixels */
"                                                                                                                                                                                                                                                                ",
"                                                                                                                                                                                                                                                                ",
"                                                                                                                                                                                                                                                                ",
"                                                                                                                                                                                                                                                                ",
"                                                                                                                                                                                                                                                                ",
"                                                                                                                                                                                                                                                                ",
"                                                                                                                                                                                                                          XXXXX                                 ",
"                                                                                                                                                             XXXXXX                                                      XXXXXXXXX                              ",
"                                                                                                                                                           XXXXXXXXX                                                    XX......XX                              ",
"                                                                                             XXXX                                                        XXXX....XXX                                                   XX........XX                             ",
"                                                                                           XXXXXXX                                          @           XXX.......XXX                                                  X..........XX        o@@                 ",
"                             XXXX                                                         X....XXX                                          +@o+@      XX...OOOO...XX        o@@                                       X....OOOO....XX    @@ooo                 ",
"                           XXXXXXX                                                       XX....XXXX                                         oooo.     X....O####O..XXX    @@+ooo                            +@@+@      X...O#$##O....XX    +@@@                 ",
"                          X....XXX                                                       X.......XXX                                       @+ooo...  X....O######O.XX       ++@@.                           oooo       X..O#$$$##O..XXX    +oo+                 ",
"                         XX....XXXX                                                      X.........X                                        ooo..... X....OO###OOO..XX    ..+oo+..                         @@+oo       X..O##$##OO...XXX   ....                 ",
"                         X......XXXX                                                    XX..OOOO...XX                                       ...o...X  ....X..O...O..XXX  XX........ ..                      ooo....   X...O..#...O....XX ...o..                 ",
"                         X......XX..                                                   X...OOOOOO...XX                                     ...oo...X XX...X..X...X...XX  XX..o.......                       ...o...   X...X..O...#....XX...oo...                ",
"                         X.......XX..                                                  X...#.O#.O...XX                                     ...oo...XX X...OOO.O##O....XXXX..oo......                       ...oo..XX X....O#O.O###....XX...oo....               ",
"                         X.......XXXX.                                                XX........O....X                                     ....o...XX XX...OO.OO#O....XX.X..oo....                         ...oo...X X.....OO.###O...XX....o......              ",
"                         ..O..#..XXXX.                                                XX...OO.OOO....XX                                     X.......X..X..XO.O.OOX....XXX...o.....                        .....o...X.X....XO.#.#OX..XX.X...........             ",
"                        X.........XXX.                                                XX....OOO......XX                                   ..X.......XX..X.X......X....XXX.........                        ........XX......X......X..X...X........ ..            ",
"                        X.........XXX.X                                               XX.....O.O......X                                  ...X.......XX...........X....XXX........                       ..........X..............X.X....XX.......               ",
"                        XX.......XX...X                                                X.............XXX                                .. .X.......XX.....XO.#XO...XX.XX.......                          ........X........XO.#X#..X.....X......                ",
"                        XXX.....XXX...X                                                .............XX..XX                                ..XX......X......XOOOOO..X...XX.......                           ......XX........OO###O..X......X....                 ",
"                        XXX.....X....XXX                                           XXX X............X...X..                               ...X......XX...XX.........X.X.XX.....                            ......XXXX........OOO.....X....X....                 ",
"                        .XX....X....XXXX                                        +@o++XXXX..........XX...X@@@+                             ..........XX....XX......XX..X..X....                               .....X.XXX...............X..XX....                 ",
"                       X...X..XX....XXXXX                                       oooo.XX.XX........XX....++o@@                              ........XX.X....XX....XX...X..XX...                               ......X..X.XX..XXXX...XX..X.X......                ",
"                      XXX..X..XX...XXXXXX                                      @@oooXX.X.X.X.XXX..XX.....o@@@                               ......XX..X.....XX..XX....X...XX...                              ......XX....X.XX..X..X.....XX... ..                ",
"                     XX.XX.X.XXX..XXXXXXXX                                       +@oXX.X..XX.XXXX........oooX                               ......X...X......XXXX....X.....X...                             ........X.....XX....XX......XX...                   ",
"                     X.X.X.X.XXX..XX....XX                                       XXXX......XXXXX...X.......X                                  ...XX...X...X..........X.....X...                           ..........X..................XX...                    ",
"                    XX.X..XX.XXXX....XXXXXX                                       XXXX.....XXX....XXXX.....X                                  ...X...X....X..X...X..X......X...                             .XX.....X....X..X....X.....X....                    ",
"                    X.XXX..XXXXX...X...XXXXX                                     XXX.......XX........XX...X.                                  .......X....X..X...X..X......X....                              .......X..XX.XX.....X...X......                   ",
"                    XXXX++.XXXX..XXXXX..XXXX                                    XX X.......XX........XXX.XX.                                   ..........XX..X...X..X.........                                   ..X....X..X.....XX...X.......                  ",
"                    X.@@o..XXXX++....XX.XXX.                                    X  X.......XX........XXXXX...                                   .........X..XX.X.X...X.....X                                     .XX....X..X.X...X.X......   .                  ",
"                    X.+oo..XXX+@@@+o.XXXXXX                                        X........XX.......XXXX.....                                 ... ......X..XX.X.X...X.....X                                      XX....X..X.X...X.X......                      ",
"                     ..@@..XXXX+@@+o.XXXXX.                                       XX .....X.XX.......XXXX.                                           .......X..X.X.............                                   X  X.....X.X...X.X.......                     ",
"                      ......XXX+++...XXXX..                                       XX .......XXX..X...XXX..                                            .....X..XX.X.......X...                                       ......X..X...X.X.......                     ",
"                      ....X.XXX......XXXX.                                        X  .......X.X..XX..XXX...                                          X.....X..XXX.X.....                                           ... ...X..X..XX.X...X....                    ",
"                      ......XXX..X...XXX..                                          ........X.X..XX..XXX...                                        .......X...X.X.X....X.                                          .    ..X.XX..XX.X... .. .                    ",
"                      ......X.X..XX..XXX..                                         ... .....X.X.X.X..X.X....                                        .....XX...X.X..X...X...                                             .XX.X.X.XX.X... .. .                    ",
"                      ......X.X..XX..XXX..                                         .    ....X.X.X.X..X. .. .                                           ..X...XX.X..X...XX                                               .XX.X.X.X..X...  .                      ",
"                       .....X.X.X.X..X.X..                                              ..X...X.X...... .. .                                             ....XX.X..X...XX                                               XXX.X.X.X..X...  .                      ",
"                        ....X.X.X.X..X. ..                                              ..X...X.X......  .                                               ....XX.XX.XX...                                               XX.X.X.X.X.XXX .                         ",
"                        ..X...X.X...... ..                                              .XX...X.X......  .                                              .....XX.XX..X..X                                              XX X .X.X.X. .XX                          ",
"                        ..X...X.X......  .                                               XX...X.X.X.. .                                                .....XXX...X.  ...                                             X    XX.X.X. X.                           ",
"                        . X...X.X......  .                                               X .X.X.X. ..                                                  . .X.XXX....X                                                       XX.X.XX  .                           ",
"                          X...X.X.X.. .                                                    .X.X.X. X.                                                    XXX X .. .XXX                                                    XX .X.XX                              ",
"                           .X.X.X. ..                                                      XX.X.X   .                                                  XXX   X  .                                                         X   X. X                              ",
"                           .X.X.X. X.                                                        .X.X                                                           XX   ..                                                            .                                ",
"                           XX.X.X   .                                                         X.                                                                                                                                                                ",
"                             .X.X                                                              .                                                                                                                                                                ",
"                              X.                                                                                                                                                                                                                                ",
"                               .                                                                                                                                                                                                                                ",
"                                                                                                                                                                                                                                                                ",
"                                                                                                                                                                                                                                                                ",
"                                                                                                                                                                                                                                                                ",
"                                                                                                                                                                                                                                                                ",
"                                                                                                                                                                                                                                                                ",
"                                                                                                                                                                                                                                                                ",
"                                                                                                                                                                                                                                                                ",
"                                                                                                                                                                                                                                                                ",
"                                                                                                                                                                                                                                                                ",
"                                                                                                                                                                                                                                                                ",
"                                                                                                                                                                                                                                                                "
};
